<svg xmlns="http://www.w3.org/2000/svg" xmlns:xlink="http://www.w3.org/1999/xlink" width="201" zoomAndPan="magnify" viewBox="0 0 150.75 150.749998" height="201" preserveAspectRatio="xMidYMid meet" version="1.2"><defs><clipPath id="830b1deb91"><path d="M 0 0.828125 L 149.75 0.828125 L 149.75 150.5 L 0 150.5 Z M 0 0.828125 "/></clipPath><clipPath id="bcbef0c38d"><path d="M 18.433594 37.695312 L 130.746094 37.695312 L 130.746094 150.007812 L 18.433594 150.007812 Z M 18.433594 37.695312 "/></clipPath><clipPath id="fad2192ebd"><path d="M 37.28125 75.390625 L 112.15625 75.390625 L 112.15625 150.265625 L 37.28125 150.265625 Z M 37.28125 75.390625 "/></clipPath><clipPath id="b25b5fe156"><path d="M 37.425781 37.695312 L 112.304688 37.695312 L 112.304688 112.570312 L 37.425781 112.570312 Z M 37.425781 37.695312 "/></clipPath><clipPath id="33ef757f70"><path d="M 37.425781 0.828125 L 112.304688 0.828125 L 112.304688 75.703125 L 37.425781 75.703125 Z M 37.425781 0.828125 "/></clipPath><clipPath id="7fb62c1b30"><path d="M 37.425781 19.429688 L 149.742188 19.429688 L 149.742188 131.742188 L 37.425781 131.742188 Z M 37.425781 19.429688 "/></clipPath><clipPath id="099cc14ddb"><path d="M 0 18.847656 L 112.3125 18.847656 L 112.3125 131.160156 L 0 131.160156 Z M 0 18.847656 "/></clipPath><clipPath id="d6524dc99b"><path d="M 18.578125 0 L 130.894531 0 L 130.894531 112.3125 L 18.578125 112.3125 Z M 18.578125 0 "/></clipPath></defs><g id="eec7be11dc"><g clip-rule="nonzero" clip-path="url(#830b1deb91)"><path style=" stroke:none;fill-rule:nonzero;fill:#a6a6a6;fill-opacity:1;" d="M 74.722656 150.277344 C 33.441406 150.277344 0 116.605469 0 75.550781 C 0 34.5 33.441406 0.828125 74.722656 0.828125 C 116.007812 0.828125 149.449219 34.269531 149.449219 75.550781 C 149.449219 116.835938 115.777344 150.277344 74.722656 150.277344 Z M 74.722656 5.441406 C 35.976562 5.441406 4.613281 36.804688 4.613281 75.550781 C 4.613281 114.296875 35.976562 145.664062 74.722656 145.664062 C 113.46875 145.664062 144.835938 114.296875 144.835938 75.550781 C 144.835938 36.804688 113.238281 5.441406 74.722656 5.441406 Z M 74.722656 5.441406 "/></g><g clip-rule="nonzero" clip-path="url(#bcbef0c38d)"><path style=" stroke:none;fill-rule:nonzero;fill:#a6a6a6;fill-opacity:1;" d="M 74.726562 150.277344 C 43.625 150.277344 18.433594 124.910156 18.433594 93.988281 C 18.433594 63.0625 43.625 37.695312 74.726562 37.695312 C 105.824219 37.695312 131.015625 62.886719 131.015625 93.988281 C 131.015625 125.085938 105.648438 150.277344 74.726562 150.277344 Z M 74.726562 41.167969 C 45.535156 41.167969 21.90625 64.796875 21.90625 93.988281 C 21.90625 123.175781 45.535156 146.804688 74.726562 146.804688 C 103.914062 146.804688 127.542969 123.175781 127.542969 93.988281 C 127.542969 64.796875 103.738281 41.167969 74.726562 41.167969 Z M 74.726562 41.167969 "/></g><g clip-rule="nonzero" clip-path="url(#fad2192ebd)"><path style=" stroke:none;fill-rule:nonzero;fill:#a6a6a6;fill-opacity:1;" d="M 74.722656 150.277344 C 54.039062 150.277344 37.28125 133.40625 37.28125 112.832031 C 37.28125 92.261719 54.039062 75.390625 74.722656 75.390625 C 95.410156 75.390625 112.167969 92.148438 112.167969 112.832031 C 112.167969 133.519531 95.296875 150.277344 74.722656 150.277344 Z M 74.722656 77.703125 C 55.308594 77.703125 39.59375 93.417969 39.59375 112.832031 C 39.59375 132.25 55.308594 147.964844 74.722656 147.964844 C 94.140625 147.964844 109.855469 132.25 109.855469 112.832031 C 109.855469 93.417969 94.023438 77.703125 74.722656 77.703125 Z M 74.722656 77.703125 "/></g><g clip-rule="nonzero" clip-path="url(#b25b5fe156)"><path style=" stroke:none;fill-rule:nonzero;fill:#a6a6a6;fill-opacity:1;" d="M 74.871094 112.582031 C 54.183594 112.582031 37.425781 95.710938 37.425781 75.140625 C 37.425781 54.566406 54.183594 37.695312 74.871094 37.695312 C 95.558594 37.695312 112.316406 54.453125 112.316406 75.140625 C 112.316406 95.824219 95.441406 112.582031 74.871094 112.582031 Z M 74.871094 40.007812 C 55.457031 40.007812 39.738281 55.722656 39.738281 75.140625 C 39.738281 94.554688 55.457031 110.269531 74.871094 110.269531 C 94.285156 110.269531 110.003906 94.554688 110.003906 75.140625 C 110.003906 55.722656 94.171875 40.007812 74.871094 40.007812 Z M 74.871094 40.007812 "/></g><g clip-rule="nonzero" clip-path="url(#33ef757f70)"><path style=" stroke:none;fill-rule:nonzero;fill:#a6a6a6;fill-opacity:1;" d="M 74.871094 75.714844 C 54.183594 75.714844 37.425781 58.84375 37.425781 38.273438 C 37.425781 17.703125 54.183594 0.828125 74.871094 0.828125 C 95.558594 0.828125 112.316406 17.585938 112.316406 38.273438 C 112.316406 58.957031 95.441406 75.714844 74.871094 75.714844 Z M 74.871094 3.140625 C 55.457031 3.140625 39.738281 18.855469 39.738281 38.273438 C 39.738281 57.6875 55.457031 73.40625 74.871094 73.40625 C 94.285156 73.40625 110.003906 57.6875 110.003906 38.273438 C 110.003906 18.855469 94.171875 3.140625 74.871094 3.140625 Z M 74.871094 3.140625 "/></g><g clip-rule="nonzero" clip-path="url(#7fb62c1b30)"><path style=" stroke:none;fill-rule:nonzero;fill:#a6a6a6;fill-opacity:1;" d="M 93.71875 132.011719 C 62.621094 132.011719 37.425781 106.648438 37.425781 75.722656 C 37.425781 44.796875 62.621094 19.429688 93.71875 19.429688 C 124.816406 19.429688 150.011719 44.621094 150.011719 75.722656 C 150.011719 106.820312 124.644531 132.011719 93.71875 132.011719 Z M 93.71875 22.90625 C 64.53125 22.90625 40.902344 46.53125 40.902344 75.722656 C 40.902344 104.910156 64.53125 128.539062 93.71875 128.539062 C 122.90625 128.539062 146.535156 104.910156 146.535156 75.722656 C 146.535156 46.53125 122.734375 22.90625 93.71875 22.90625 Z M 93.71875 22.90625 "/></g><g clip-rule="nonzero" clip-path="url(#099cc14ddb)"><path style=" stroke:none;fill-rule:nonzero;fill:#a6a6a6;fill-opacity:1;" d="M 56.292969 131.429688 C 25.191406 131.429688 0 106.0625 0 75.140625 C 0 44.214844 25.191406 18.847656 56.292969 18.847656 C 87.390625 18.847656 112.582031 44.039062 112.582031 75.140625 C 112.582031 106.238281 87.21875 131.429688 56.292969 131.429688 Z M 56.292969 22.320312 C 27.101562 22.320312 3.476562 45.949219 3.476562 75.140625 C 3.476562 104.328125 27.101562 127.957031 56.292969 127.957031 C 85.480469 127.957031 109.109375 104.328125 109.109375 75.140625 C 109.109375 45.949219 85.304688 22.320312 56.292969 22.320312 Z M 56.292969 22.320312 "/></g><g clip-rule="nonzero" clip-path="url(#d6524dc99b)"><path style=" stroke:none;fill-rule:nonzero;fill:#a6a6a6;fill-opacity:1;" d="M 74.871094 112.582031 C 43.773438 112.582031 18.578125 87.21875 18.578125 56.292969 C 18.578125 25.367188 43.773438 0 74.871094 0 C 105.96875 0 131.164062 25.191406 131.164062 56.292969 C 131.164062 87.390625 105.796875 112.582031 74.871094 112.582031 Z M 74.871094 3.476562 C 45.683594 3.476562 22.054688 27.101562 22.054688 56.292969 C 22.054688 85.480469 45.683594 109.109375 74.871094 109.109375 C 104.058594 109.109375 127.6875 85.480469 127.6875 56.292969 C 127.6875 27.101562 103.886719 3.476562 74.871094 3.476562 Z M 74.871094 3.476562 "/></g></g></svg>